<svg xmlns="http://www.w3.org/2000/svg" xmlns:xlink="http://www.w3.org/1999/xlink" width="51" height="51" viewBox="0 0 51 51">
  <defs>
    <linearGradient id="linear-gradient" x1="0.5" x2="0.5" y2="1" gradientUnits="objectBoundingBox">
      <stop offset="0" stop-color="#54f11a"/>
      <stop offset="0.498" stop-color="#21c100"/>
      <stop offset="1" stop-color="#54f11a"/>
    </linearGradient>
  </defs>
  <path id="Icon_ionic-logo-whatsapp" data-name="Icon ionic-logo-whatsapp" d="M28.212,2.25A24.941,24.941,0,0,0,3.176,27.093,24.587,24.587,0,0,0,6.769,39.922L2.25,53.25l13.862-4.4A25.079,25.079,0,0,0,53.25,27.093,24.94,24.94,0,0,0,28.212,2.25Zm12.45,34.278c-.589,1.46-3.253,2.793-4.428,2.854s-1.208.91-7.609-1.871-10.251-9.545-10.555-9.98S15.59,24,15.708,20.877a7.094,7.094,0,0,1,2.437-5.205,2.452,2.452,0,0,1,1.734-.73c.5-.008.831-.015,1.2,0s.933-.078,1.417,1.211,1.644,4.457,1.793,4.78a1.16,1.16,0,0,1,.012,1.112,4.348,4.348,0,0,1-.679,1.034c-.334.358-.7.8-1,1.076-.332.3-.68.634-.33,1.283a19.159,19.159,0,0,0,3.39,4.524A17.468,17.468,0,0,0,30.7,33.3c.628.342,1,.3,1.392-.106s1.666-1.793,2.117-2.41.872-.5,1.451-.265,3.661,1.885,4.289,2.226,1.047.516,1.2.785A5.258,5.258,0,0,1,40.662,36.528Z" transform="translate(-2.25 -2.25)" fill="url(#linear-gradient)"/>
</svg>
